<svg width="500" height="373" viewBox="0 0 500 373" fill="none" xmlns="http://www.w3.org/2000/svg">
<g opacity="0.917411" clip-path="url(#clip0_966_2248)">
<mask id="mask0_966_2248" style="mask-type:luminance" maskUnits="userSpaceOnUse" x="0" y="327" width="500" height="1">
<path fill-rule="evenodd" clip-rule="evenodd" d="M0 327H500V328H0V327Z" fill="white"/>
</mask>
<g mask="url(#mask0_966_2248)">
<path fill-rule="evenodd" clip-rule="evenodd" d="M0 327.625H500V327.375H0V327.625Z" fill="#E4E4DE"/>
</g>
<path fill-rule="evenodd" clip-rule="evenodd" d="M397 343.625H450V343.375H397V343.625Z" fill="#E4E4DE"/>
<path fill-rule="evenodd" clip-rule="evenodd" d="M273 340.625H332V340.375H273V340.625Z" fill="#E4E4DE"/>
<path fill-rule="evenodd" clip-rule="evenodd" d="M380 339.625H399V339.375H380V339.625Z" fill="#E4E4DE"/>
<path fill-rule="evenodd" clip-rule="evenodd" d="M100 336.625H143V336.375H100V336.625Z" fill="#D0D9E6"/>
<path fill-rule="evenodd" clip-rule="evenodd" d="M79 336.625H94V336.375H79V336.625Z" fill="#D0D9E6"/>
<path fill-rule="evenodd" clip-rule="evenodd" d="M131 340.625H185V340.375H131V340.625Z" fill="#D0D9E6"/>
<path fill-rule="evenodd" clip-rule="evenodd" d="M43.708 0.25C40.698 0.25 38.25 2.699 38.25 5.708V277.139C38.25 280.149 40.698 282.597 43.708 282.597H236.807C239.815 282.597 242.264 280.149 242.264 277.139V5.708C242.264 2.699 239.815 0.25 236.807 0.25H43.708M236.807 282.847H43.708C40.56 282.847 38 280.287 38 277.139V5.708C38 2.561 40.56 0 43.708 0H236.807C239.953 0 242.514 2.561 242.514 5.708V277.139C242.514 280.287 239.953 282.847 236.807 282.847" fill="#D0D9E6"/>
<path fill-rule="evenodd" clip-rule="evenodd" d="M260.707 0.25C257.698 0.25 255.25 2.699 255.25 5.708V277.139C255.25 280.149 257.698 282.597 260.707 282.597H453.806C456.815 282.597 459.264 280.149 459.264 277.139V5.708C459.264 2.699 456.815 0.25 453.806 0.25H260.707M453.806 282.847H260.707C257.56 282.847 255 280.287 255 277.139V5.708C255 2.561 257.56 0 260.707 0H453.806C456.953 0 459.514 2.561 459.514 5.708V277.139C459.514 280.287 456.953 282.847 453.806 282.847" fill="#D0D9E6"/>
<path fill-rule="evenodd" clip-rule="evenodd" d="M117.873 267H57.1272C54.307 267 52 264.778 52 262.063V259.937C52 257.221 54.307 255 57.1272 255H117.873C120.692 255 123 257.221 123 259.937V262.063C123 264.778 120.692 267 117.873 267" fill="#E3ECFA"/>
<path fill-rule="evenodd" clip-rule="evenodd" d="M71 267H61.1752L50 327H59.8248L71 267" fill="#DAE2F0"/>
<path fill-rule="evenodd" clip-rule="evenodd" d="M92 267H81.746L76 327H86.254L92 267" fill="#DAE2F0"/>
<path fill-rule="evenodd" clip-rule="evenodd" d="M103 267H112.825L124 327H114.176L103 267" fill="#DAE2F0"/>
<path fill-rule="evenodd" clip-rule="evenodd" d="M197 220H431V16H197V220Z" fill="#DAE2F0"/>
<path fill-rule="evenodd" clip-rule="evenodd" d="M200 220H437V16H200V220Z" fill="#E3ECFA"/>
<path fill-rule="evenodd" clip-rule="evenodd" d="M197 223H431V219H197V223Z" fill="#DDDED8"/>
<path fill-rule="evenodd" clip-rule="evenodd" d="M204 223H441V219H204V223Z" fill="#DAE2F0"/>
<path fill-rule="evenodd" clip-rule="evenodd" d="M210 213H428V22H210V213Z" fill="#FCFEFF"/>
<path fill-rule="evenodd" clip-rule="evenodd" d="M280 213L320.904 22H348L307.096 213H280" fill="#FFFFFE"/>
<path fill-rule="evenodd" clip-rule="evenodd" d="M248 213L288.903 22H316L275.097 213H248" fill="#FFFFFE"/>
<path fill-rule="evenodd" clip-rule="evenodd" d="M215 22.5158V200.484C215 200.769 215.404 201 215.903 201H217.098C217.597 201 218 200.769 218 200.484V22.5158C218 22.2305 217.597 22 217.098 22H215.903C215.404 22 215 22.2305 215 22.5158" fill="#EAEAE5"/>
<path fill-rule="evenodd" clip-rule="evenodd" d="M350 213L391.327 22H402L360.673 213H350" fill="#FFFFFE"/>
<path fill-rule="evenodd" clip-rule="evenodd" d="M427 213H428V22H427V213Z" fill="#DAE2F0"/>
<path fill-rule="evenodd" clip-rule="evenodd" d="M440 29H438V24H439.222L440 29" fill="#E3ECFA"/>
<path fill-rule="evenodd" clip-rule="evenodd" d="M428 29H438V24H428V29Z" fill="#DAE2F0"/>
<path fill-rule="evenodd" clip-rule="evenodd" d="M426.981 29.461H399.949L401.123 24H426.981V29.461M389.348 29.461H378.266L378 24H390.522L389.348 29.461" fill="#E3ECFA"/>
<path fill-rule="evenodd" clip-rule="evenodd" d="M399.804 29H389L390.196 24H401L399.804 29" fill="#EBF3FF"/>
<path fill-rule="evenodd" clip-rule="evenodd" d="M427 29H428V24H427V29Z" fill="#CCD3E0"/>
<path fill-rule="evenodd" clip-rule="evenodd" d="M440 48H438V43H439.222L440 48" fill="#E3ECFA"/>
<path fill-rule="evenodd" clip-rule="evenodd" d="M428 48H438V43H428V48Z" fill="#DAE2F0"/>
<path fill-rule="evenodd" clip-rule="evenodd" d="M427.069 48.461H396.008L397.182 43H427.069V48.461M385.408 48.461H379.266L379 43H386.582L385.408 48.461" fill="#E3ECFA"/>
<path fill-rule="evenodd" clip-rule="evenodd" d="M395.803 48H385L386.197 43H397L395.803 48" fill="#EBF3FF"/>
<path fill-rule="evenodd" clip-rule="evenodd" d="M427 48H428V43H427V48Z" fill="#CCD3E0"/>
<path fill-rule="evenodd" clip-rule="evenodd" d="M440 67H438V62H439.222L440 67" fill="#E3ECFA"/>
<path fill-rule="evenodd" clip-rule="evenodd" d="M428 67H438V62H428V67Z" fill="#DAE2F0"/>
<path fill-rule="evenodd" clip-rule="evenodd" d="M427.156 67.461H392.067L393.241 62H427.156V67.461M381.466 67.461H380.266L380 62H382.641L381.466 67.461" fill="#E3ECFA"/>
<path fill-rule="evenodd" clip-rule="evenodd" d="M391.804 67H381L382.197 62H393L391.804 67" fill="#EBF3FF"/>
<path fill-rule="evenodd" clip-rule="evenodd" d="M427 67H428V62H427V67Z" fill="#CCD3E0"/>
<path fill-rule="evenodd" clip-rule="evenodd" d="M440 86H438V81H439.222L440 86" fill="#E3ECFA"/>
<path fill-rule="evenodd" clip-rule="evenodd" d="M428 86H438V81H428V86Z" fill="#DAE2F0"/>
<path fill-rule="evenodd" clip-rule="evenodd" d="M427 86H388L389.171 81H427V86" fill="#E3ECFA"/>
<path fill-rule="evenodd" clip-rule="evenodd" d="M387.868 86H381.256L381 81H389L387.868 86" fill="#EBF3FF"/>
<path fill-rule="evenodd" clip-rule="evenodd" d="M427 86H428V81H427V86Z" fill="#CCD3E0"/>
<path fill-rule="evenodd" clip-rule="evenodd" d="M440 104H438V99H439.222L440 104" fill="#E3ECFA"/>
<path fill-rule="evenodd" clip-rule="evenodd" d="M428 104H438V99H428V104Z" fill="#DAE2F0"/>
<path fill-rule="evenodd" clip-rule="evenodd" d="M427 104H384L385.17 99H427V104" fill="#E3ECFA"/>
<path fill-rule="evenodd" clip-rule="evenodd" d="M382.952 104H381.237L381 99H384L382.952 104" fill="#EBF3FF"/>
<path fill-rule="evenodd" clip-rule="evenodd" d="M427 104H428V99H427V104Z" fill="#CCD3E0"/>
<path fill-rule="evenodd" clip-rule="evenodd" d="M440 123H438V118H439.222L440 123" fill="#E3ECFA"/>
<path fill-rule="evenodd" clip-rule="evenodd" d="M428 123H438V118H428V123Z" fill="#DAE2F0"/>
<path fill-rule="evenodd" clip-rule="evenodd" d="M426 123H384.114C383.618 122.229 382.932 121.193 382.107 120.027L382 118H426V123" fill="#E3ECFA"/>
<path fill-rule="evenodd" clip-rule="evenodd" d="M427 123H428V118H427V123Z" fill="#CCD3E0"/>
<path fill-rule="evenodd" clip-rule="evenodd" d="M440 39H438V34H439.222L440 39" fill="#E3ECFA"/>
<path fill-rule="evenodd" clip-rule="evenodd" d="M428 39H438V34H428V39Z" fill="#DAE2F0"/>
<path fill-rule="evenodd" clip-rule="evenodd" d="M426.525 39.461H397.479L398.653 34H426.525V39.461M386.878 39.461H378.266L378 34H388.052L386.878 39.461" fill="#E3ECFA"/>
<path fill-rule="evenodd" clip-rule="evenodd" d="M397.804 39H387L388.196 34H399L397.804 39" fill="#EBF3FF"/>
<path fill-rule="evenodd" clip-rule="evenodd" d="M427 39H428V34H427V39Z" fill="#CCD3E0"/>
<path fill-rule="evenodd" clip-rule="evenodd" d="M440 58H438V53H439.222L440 58" fill="#E3ECFA"/>
<path fill-rule="evenodd" clip-rule="evenodd" d="M428 58H438V53H428V58Z" fill="#DAE2F0"/>
<path fill-rule="evenodd" clip-rule="evenodd" d="M426.612 58.461H393.537L394.711 53H426.612V58.461M382.936 58.461H379.265L379 53H384.111L382.936 58.461" fill="#E3ECFA"/>
<path fill-rule="evenodd" clip-rule="evenodd" d="M393.804 58H383L384.197 53H395L393.804 58" fill="#EBF3FF"/>
<path fill-rule="evenodd" clip-rule="evenodd" d="M427 58H428V53H427V58Z" fill="#CCD3E0"/>
<path fill-rule="evenodd" clip-rule="evenodd" d="M440 76H438V71H439.222L440 76" fill="#E3ECFA"/>
<path fill-rule="evenodd" clip-rule="evenodd" d="M428 76H438V71H428V76Z" fill="#DAE2F0"/>
<path fill-rule="evenodd" clip-rule="evenodd" d="M426.7 76.461H389.597L390.771 71H426.7V76.461M380.031 71.646L380 71H380.17L380.031 71.646" fill="#E3ECFA"/>
<path fill-rule="evenodd" clip-rule="evenodd" d="M389.798 76H380.241L380 71.5915L380.142 71H391L389.798 76" fill="#EBF3FF"/>
<path fill-rule="evenodd" clip-rule="evenodd" d="M427 76H428V71H427V76Z" fill="#CCD3E0"/>
<path fill-rule="evenodd" clip-rule="evenodd" d="M440 95H438V90H439.222L440 95" fill="#E3ECFA"/>
<path fill-rule="evenodd" clip-rule="evenodd" d="M428 95H438V90H428V95Z" fill="#DAE2F0"/>
<path fill-rule="evenodd" clip-rule="evenodd" d="M427 95H386L387.17 90H427V95" fill="#E3ECFA"/>
<path fill-rule="evenodd" clip-rule="evenodd" d="M385.792 95H381.274L381 90H387L385.792 95" fill="#EBF3FF"/>
<path fill-rule="evenodd" clip-rule="evenodd" d="M427 95H428V90H427V95Z" fill="#CCD3E0"/>
<path fill-rule="evenodd" clip-rule="evenodd" d="M440 114H438V109H439.222L440 114" fill="#E3ECFA"/>
<path fill-rule="evenodd" clip-rule="evenodd" d="M428 114H438V109H428V114Z" fill="#DAE2F0"/>
<path fill-rule="evenodd" clip-rule="evenodd" d="M427 114H382.103L382 112.09L382.731 109H427V114" fill="#E3ECFA"/>
<path fill-rule="evenodd" clip-rule="evenodd" d="M382.219 112L382.055 109H382.945L382.219 112" fill="#E9E9E4"/>
<path fill-rule="evenodd" clip-rule="evenodd" d="M427 114H428V109H427V114Z" fill="#CCD3E0"/>
<path fill-rule="evenodd" clip-rule="evenodd" d="M440 133H438V128H439.222L440 133" fill="#E3ECFA"/>
<path fill-rule="evenodd" clip-rule="evenodd" d="M428 133H438V128H428V133Z" fill="#DAE2F0"/>
<path fill-rule="evenodd" clip-rule="evenodd" d="M426 133H387.041C386.659 132.309 386.265 131.628 385.862 130.953C385.273 129.942 384.647 128.962 384 128H426V133" fill="#E3ECFA"/>
<path fill-rule="evenodd" clip-rule="evenodd" d="M427 133H428V128H427V133Z" fill="#CCD3E0"/>
<path fill-rule="evenodd" clip-rule="evenodd" d="M400 328H431V235H400V328Z" fill="#DDDED8"/>
<path fill-rule="evenodd" clip-rule="evenodd" d="M411.962 328H431V317H392L411.962 328" fill="#E3ECFA"/>
<path fill-rule="evenodd" clip-rule="evenodd" d="M307 328H338V235H307V328Z" fill="#DAE2F0"/>
<path fill-rule="evenodd" clip-rule="evenodd" d="M322 326H431V235H322V326Z" fill="#E3ECFA"/>
<path fill-rule="evenodd" clip-rule="evenodd" d="M341.038 328H322V317H361L341.038 328" fill="#E3ECFA"/>
<path fill-rule="evenodd" clip-rule="evenodd" d="M336 292H416V245H336V292Z" fill="#FCFEFF"/>
<path fill-rule="evenodd" clip-rule="evenodd" d="M336 319H416V297H336V319Z" fill="#FCFEFF"/>
<path fill-rule="evenodd" clip-rule="evenodd" d="M382.793 247H368.207C365.884 247 364 245.21 364 243H387C387 245.21 385.116 247 382.793 247" fill="#E4E4DE"/>
<path fill-rule="evenodd" clip-rule="evenodd" d="M382.793 299H368.207C365.884 299 364 297.209 364 295H387C387 297.209 385.117 299 382.793 299" fill="#E3ECFA"/>
<path fill-rule="evenodd" clip-rule="evenodd" d="M282 328H313V235H282V328Z" fill="#E3ECFA"/>
<path fill-rule="evenodd" clip-rule="evenodd" d="M294.962 328H314V317H275L294.962 328" fill="#E3ECFA"/>
<path fill-rule="evenodd" clip-rule="evenodd" d="M190 328H221V235H190V328Z" fill="#DAE2F0"/>
<path fill-rule="evenodd" clip-rule="evenodd" d="M204 326H313V235H204V326Z" fill="#E3ECFA"/>
<path fill-rule="evenodd" clip-rule="evenodd" d="M223.039 328H204V317H243L223.039 328" fill="#E3ECFA"/>
<path fill-rule="evenodd" clip-rule="evenodd" d="M219 292H299V245H219V292Z" fill="#FCFEFF"/>
<path fill-rule="evenodd" clip-rule="evenodd" d="M219 319H299V297H219V319Z" fill="#FCFEFF"/>
<path fill-rule="evenodd" clip-rule="evenodd" d="M265.793 247H251.207C248.883 247 247 245.21 247 243H270C270 245.21 268.117 247 265.793 247" fill="#E4E4DE"/>
<path fill-rule="evenodd" clip-rule="evenodd" d="M265.793 299H251.207C248.883 299 247 297.209 247 295H270C270 297.209 268.117 299 265.793 299" fill="#E3ECFA"/>
<path fill-rule="evenodd" clip-rule="evenodd" d="M204 235H430V231H204V235Z" fill="#DAE2F0"/>
<path fill-rule="evenodd" clip-rule="evenodd" d="M190 235H205V231H190V235Z" fill="#D4D5CF"/>
<path fill-rule="evenodd" clip-rule="evenodd" d="M84.6786 240.721C83.2324 204.199 81.6897 167.883 84.8479 149.564L90 146C90 146 88.8707 149.415 88.2789 205.372C87.8665 244.267 87.3855 242.154 87.3424 240.041C87.3229 239.113 87.3886 238.186 87.5804 240.721H84.6786" fill="#DDDED8"/>
<path fill-rule="evenodd" clip-rule="evenodd" d="M92.5274 110.729C100.223 90.5542 118.153 71.0725 137.633 63.1035C145.281 59.9744 134.262 128.776 106.533 133.211C92.9923 135.376 88.7767 170.246 86.4936 187C85.719 154.048 84.8329 130.905 92.5274 110.729" fill="#DDDED8"/>
<path fill-rule="evenodd" clip-rule="evenodd" d="M90.4442 161.604C95.8516 153.025 104.693 141.012 117.61 141C132.252 140.987 119.439 165.114 102.228 172.82C93.824 176.583 86.8187 188.526 85 196C85.1511 180.852 85.0358 170.183 90.4442 161.604" fill="#DDDED8"/>
<path fill-rule="evenodd" clip-rule="evenodd" d="M77.5085 136.292C68.0788 119.581 47.0618 102.776 24.686 95.1309C15.9013 92.1288 15.0349 141.631 62.3988 153.477C77.6959 157.302 83.8285 184.384 87 198C86.7358 171.555 86.9372 153.003 77.5085 136.292" fill="#DAE2F0"/>
<path fill-rule="evenodd" clip-rule="evenodd" d="M83.4865 175.934C77.4192 165.318 60.9252 160.128 46.092 161.12C40.2672 161.508 39.631 183.299 72.0262 191.714C81.8519 194.266 85.8166 211.35 87.8569 220C87.6868 203.199 89.5539 186.552 83.4865 175.934" fill="#DAE2F0"/>
<path fill-rule="evenodd" clip-rule="evenodd" d="M83.1369 119.14C78.4414 104.138 64.6012 90.692 51.8983 85.1338C46.9112 82.9517 45.378 107.828 72.6406 132.182C80.9094 139.57 83.5167 161.09 84.8644 172C85.4827 152.522 87.8325 134.141 83.1369 119.14" fill="#DAE2F0"/>
<path fill-rule="evenodd" clip-rule="evenodd" d="M86.5 255C76.5025 255 68.2403 254.271 67.6656 240.748L66 223H107L105.334 240.748C104.761 254.271 96.4985 255 86.5 255" fill="#E3ECFA"/>
<path fill-rule="evenodd" clip-rule="evenodd" d="M105.835 230H65.1648L64 222H107L105.835 230" fill="#E3ECFA"/>
<path opacity="0.601028" fill-rule="evenodd" clip-rule="evenodd" d="M444 361.501C444 367.852 357.144 373 250 373C142.857 373 56 367.852 56 361.501C56 355.149 142.857 350 250 350C357.144 350 444 355.149 444 361.501" fill="#E3ECFA"/>
<path fill-rule="evenodd" clip-rule="evenodd" d="M72.9904 63L72 43.0486L73.0096 43L74 62.9514L72.9904 63" fill="#3F8CFF"/>
<path fill-rule="evenodd" clip-rule="evenodd" d="M73.3252 80L73 70.0483L73.6748 70L74 79.9507L73.3252 80" fill="#3F8CFF"/>
<path fill-rule="evenodd" clip-rule="evenodd" d="M86.5239 247C85.579 247 84.801 246.257 84.755 245.311L74.0041 23.8621C73.9551 22.8494 74.7611 22 75.7729 22H375.477C376.421 22 377.199 22.7432 377.245 23.6898L387.996 245.139C388.045 246.152 387.239 247 386.227 247H86.5239Z" fill="#3F8CFF"/>
<path fill-rule="evenodd" clip-rule="evenodd" d="M366.764 243.367H90.1831C89.2371 243.367 88.4581 242.625 88.4131 241.681L78.0021 27.859C77.9531 26.848 78.7601 26 79.7731 26H372.583C373.529 26 374.308 26.742 374.354 27.687L378.614 115.172C376.533 112.555 374.201 110.113 371.958 108.804C370.359 107.747 368.465 107.085 366.405 106.972C366.264 106.964 366.124 106.957 365.983 106.95C362.345 103.437 363.062 96.145 364.161 90.881L353.125 97.034C353.963 100.565 354.058 104.842 351.181 106.838C350.631 106.87 350.11 106.907 349.623 106.951C347.816 107.115 346.041 107.376 344.459 107.655C344.06 107.726 343.668 107.819 343.286 107.934C341.733 108.366 340.016 109.235 338.154 110.637C330.511 116.393 324.836 128.587 324.836 128.587L326.648 129.581C324.965 131.435 323.216 133.247 321.407 135.026C319.426 136.963 317.441 138.802 315.285 140.818C315.227 140.824 315.167 140.83 315.103 140.834C315.033 140.838 314.96 140.84 314.884 140.84C314.414 140.84 313.834 140.764 313.209 140.605C312.193 140.353 311.076 139.936 309.94 139.412C310.005 138.166 310.062 136.926 310.11 135.705L319.24 135.406C319.769 130.497 319.045 122.322 317.821 113.854C316.776 104.985 314.986 94.886 313.08 84.597L303.971 85.175L301.714 38.812C301.689 38.324 301.261 37.948 300.801 37.948C300.789 37.948 300.776 37.949 300.763 37.949C300.263 37.974 299.877 38.399 299.901 38.899L302.16 85.29L264.835 87.661C264.95 88.166 265.064 88.671 265.177 89.174H265.176C265.178 89.182 265.18 89.19 265.182 89.199C265.361 89.997 265.537 90.793 265.711 91.586C267.162 98.288 268.283 104.824 269.094 111.073L263.009 110.12C263.106 128.098 261.173 144.556 258.027 157.49L306.115 166.508L309.233 230.556C309.257 231.041 309.658 231.419 310.138 231.419L310.183 231.418C310.683 231.394 311.07 230.968 311.046 230.468L307.66 160.937C308.334 157.429 308.867 153.226 309.273 148.795C309.595 148.943 309.925 149.085 310.264 149.222C311.499 149.71 312.871 150.12 314.441 150.3C314.877 150.351 315.334 150.379 315.805 150.379C317.017 150.379 318.324 150.192 319.614 149.728L320.287 149.485L321.11 148.808C323.429 146.899 326.053 144.817 328.485 142.634C330.616 140.751 332.699 138.781 334.699 136.71C334.712 137.792 334.735 138.913 334.769 140.077C334.782 140.63 334.802 141.2 334.825 141.784C335.11 149.631 335.858 159.284 337.307 171.14H344.78L342.209 179.771L347.579 181.37C347.557 181.517 347.534 181.664 347.512 181.811L353.296 183.072L353.573 183.155C356.716 197.592 362.015 221.887 365.587 238.049C366.005 239.943 366.4 241.726 366.764 243.367M160.008 209.112L161.052 230.556C161.077 231.041 161.477 231.419 161.958 231.419L162.003 231.418C162.503 231.394 162.889 230.968 162.865 230.468L161.816 208.928L187.162 206.353C187.034 195.056 181.224 168.82 177.779 158.987L159.491 161.16L157.924 128.986L163.612 128.68C161.054 111.674 159.194 95.337 158.65 80.259L155.558 80.378L153.534 38.812C153.509 38.324 153.089 37.948 152.622 37.948C152.609 37.948 152.597 37.949 152.584 37.949C152.084 37.974 151.697 38.399 151.721 38.899L153.744 80.448L111.468 82.08C111.364 95.911 112.535 114.587 115.319 131.283L156.112 129.084L157.684 161.375L131.062 164.538C136.03 182.056 136.238 197.933 137.616 211.388L160.008 209.112M175.885 95.373L175.883 143.501L224.428 146.43L224.43 98.302L175.885 95.373M383.367 212.804C382.013 205.059 380.64 197.428 379.443 190.859L382.341 191.722L383.367 212.804M379.867 140.919L375.281 139.919C375.324 138.491 375.38 137.035 375.453 135.558L376.222 134.773C377.549 136.758 378.784 138.77 379.861 140.801L379.867 140.919M315.934 140.652L316.052 140.579C316.02 140.604 315.981 140.628 315.934 140.652" fill="#F4F9FD"/>
<path d="M104.702 45.1122L102.099 45.1576L102.075 43.7898L108.794 43.6726L108.818 45.0403L106.214 45.0858L106.338 52.2127L104.827 52.2391L104.702 45.1122ZM108.171 49.3003C108.163 48.8444 108.235 48.431 108.389 48.0603C108.55 47.6814 108.769 47.3576 109.044 47.0887C109.319 46.8199 109.648 46.6101 110.029 46.4594C110.411 46.3087 110.817 46.2296 111.249 46.2221C111.681 46.2145 112.09 46.2794 112.477 46.4167C112.863 46.554 113.199 46.7521 113.483 47.0112C113.768 47.2703 113.994 47.5864 114.16 47.9596C114.335 48.3246 114.426 48.735 114.434 49.191C114.442 49.6469 114.365 50.0643 114.203 50.4432C114.05 50.8139 113.835 51.1337 113.56 51.4025C113.285 51.6714 112.956 51.8812 112.575 52.0318C112.194 52.1825 111.787 52.2616 111.355 52.2692C110.923 52.2767 110.514 52.2118 110.127 52.0746C109.741 51.9373 109.405 51.7391 109.121 51.48C108.836 51.221 108.607 50.9089 108.432 50.5439C108.266 50.1708 108.179 49.7562 108.171 49.3003ZM109.61 49.2752C109.614 49.4991 109.654 49.7145 109.73 49.9212C109.813 50.1277 109.928 50.3098 110.075 50.4672C110.23 50.6245 110.412 50.7494 110.622 50.8417C110.832 50.9341 111.068 50.978 111.332 50.9734C111.596 50.9688 111.831 50.9166 112.038 50.817C112.244 50.7174 112.418 50.5864 112.559 50.4239C112.708 50.2612 112.817 50.0753 112.885 49.8661C112.962 49.6567 112.998 49.4401 112.994 49.2161C112.99 48.9921 112.946 48.7769 112.863 48.5703C112.787 48.3636 112.672 48.1816 112.517 48.0242C112.37 47.8668 112.192 47.7419 111.982 47.6495C111.773 47.5572 111.536 47.5133 111.272 47.5179C111.008 47.5225 110.773 47.5746 110.567 47.6742C110.36 47.7738 110.183 47.905 110.033 48.0676C109.892 48.2301 109.783 48.416 109.707 48.6254C109.639 48.8346 109.606 49.0512 109.61 49.2752ZM119.366 43.488L122.713 43.4296C123.273 43.4198 123.815 43.4984 124.338 43.6653C124.861 43.8242 125.325 44.0761 125.731 44.4211C126.137 44.766 126.465 45.2044 126.714 45.7361C126.963 46.2598 127.094 46.8817 127.107 47.6015C127.12 48.3294 126.991 48.9638 126.72 49.5046C126.457 50.0373 126.109 50.4834 125.675 50.843C125.249 51.1945 124.77 51.4629 124.237 51.6482C123.712 51.8254 123.194 51.9185 122.682 51.9274L119.514 51.9827L119.366 43.488ZM122.13 50.5689C122.602 50.5606 123.045 50.5009 123.459 50.3896C123.881 50.2703 124.246 50.0959 124.554 49.8664C124.862 49.629 125.101 49.3288 125.27 48.9658C125.448 48.5947 125.532 48.1491 125.523 47.6292C125.514 47.1173 125.426 46.6787 125.26 46.3136C125.094 45.9484 124.865 45.6564 124.573 45.4374C124.289 45.2104 123.95 45.0483 123.556 44.9511C123.17 44.8458 122.745 44.7972 122.281 44.8053L120.902 44.8294L121.002 50.5885L122.13 50.5689ZM128.148 48.9516C128.14 48.4957 128.213 48.0823 128.366 47.7116C128.528 47.3327 128.746 47.0088 129.022 46.74C129.297 46.4712 129.625 46.2614 130.007 46.1107C130.388 45.96 130.795 45.8809 131.227 45.8734C131.659 45.8658 132.068 45.9307 132.454 46.068C132.841 46.2053 133.176 46.4034 133.461 46.6625C133.745 46.9216 133.971 47.2377 134.138 47.6108C134.312 47.9759 134.403 48.3863 134.411 48.8423C134.419 49.2982 134.342 49.7156 134.181 50.0945C134.027 50.4652 133.813 50.785 133.538 51.0538C133.262 51.3227 132.934 51.5325 132.552 51.6831C132.171 51.8338 131.764 51.9129 131.332 51.9205C130.9 51.928 130.491 51.8631 130.105 51.7259C129.718 51.5886 129.383 51.3904 129.098 51.1313C128.814 50.8723 128.584 50.5602 128.41 50.1952C128.243 49.8221 128.156 49.4075 128.148 48.9516ZM129.588 48.9265C129.592 49.1504 129.631 49.3658 129.707 49.5725C129.791 49.779 129.906 49.9611 130.053 50.1185C130.207 50.2758 130.39 50.4007 130.599 50.493C130.809 50.5854 131.046 50.6293 131.31 50.6247C131.574 50.6201 131.809 50.5679 132.015 50.4683C132.221 50.3687 132.395 50.2377 132.536 50.0752C132.685 49.9125 132.794 49.7266 132.863 49.5174C132.939 49.308 132.975 49.0914 132.971 48.8674C132.967 48.6434 132.924 48.4282 132.84 48.2216C132.764 48.0149 132.649 47.8329 132.494 47.6755C132.348 47.5181 132.169 47.3932 131.96 47.3008C131.75 47.2085 131.513 47.1646 131.249 47.1692C130.985 47.1738 130.75 47.2259 130.544 47.3255C130.338 47.4251 130.16 47.5563 130.011 47.7189C129.87 47.8814 129.761 48.0673 129.684 48.2767C129.616 48.4859 129.584 48.7025 129.588 48.9265Z" fill="#3F8CFF"/>
<path d="M160.11 44.0336L161.621 44.0072L161.77 52.5019L160.258 52.5283L160.11 44.0336ZM163.401 46.7126L164.769 46.6887L164.785 47.6126L164.809 47.6122C164.94 47.3218 165.143 47.0702 165.42 46.8574C165.696 46.6365 166.074 46.5219 166.554 46.5135C166.938 46.5068 167.263 46.5652 167.529 46.6885C167.803 46.8118 168.026 46.9759 168.198 47.181C168.369 47.386 168.493 47.6239 168.57 47.8946C168.647 48.1653 168.688 48.4486 168.693 48.7445L168.757 52.38L167.317 52.4051L167.266 49.4896C167.263 49.3296 167.252 49.1538 167.233 48.9621C167.213 48.7624 167.166 48.5792 167.091 48.4125C167.024 48.2376 166.917 48.0954 166.772 47.986C166.625 47.8685 166.428 47.8119 166.18 47.8163C165.941 47.8204 165.737 47.864 165.571 47.9469C165.412 48.0297 165.278 48.1401 165.168 48.278C165.067 48.4158 164.994 48.5731 164.949 48.7499C164.904 48.9267 164.883 49.1111 164.886 49.3031L164.941 52.4466L163.501 52.4717L163.401 46.7126ZM173.925 43.7925L176.78 43.7426C177.188 43.7355 177.581 43.7687 177.958 43.8421C178.344 43.9154 178.682 44.0455 178.973 44.2324C179.264 44.4114 179.497 44.6594 179.67 44.9764C179.852 45.2853 179.947 45.6757 179.955 46.1476C179.964 46.6835 179.88 47.1171 179.702 47.4482C179.523 47.7794 179.28 48.0397 178.971 48.2291C178.662 48.4105 178.3 48.5368 177.885 48.6081C177.479 48.6792 177.051 48.7187 176.603 48.7265L175.524 48.7453L175.585 52.2608L174.073 52.2872L173.925 43.7925ZM176.413 47.4336C176.629 47.4298 176.853 47.4179 177.084 47.3979C177.316 47.3778 177.527 47.3262 177.718 47.2428C177.916 47.1593 178.074 47.0366 178.191 46.8745C178.316 46.7123 178.377 46.4872 178.372 46.1992C178.367 45.9353 178.307 45.7283 178.193 45.5783C178.078 45.4202 177.932 45.3028 177.754 45.2259C177.577 45.141 177.38 45.0884 177.164 45.0682C176.947 45.0479 176.739 45.0396 176.539 45.043L175.459 45.0619L175.501 47.4495L176.413 47.4336ZM181.175 46.4023L182.615 46.3772L182.631 47.2891L182.655 47.2887C182.809 46.9499 183.033 46.686 183.325 46.4968C183.618 46.3077 183.956 46.2098 184.34 46.2031C184.428 46.2015 184.513 46.2081 184.593 46.2227C184.681 46.2371 184.769 46.2556 184.858 46.2781L184.882 47.6698C184.762 47.6399 184.641 47.618 184.521 47.6041C184.409 47.5821 184.296 47.5721 184.184 47.574C183.848 47.5799 183.578 47.6486 183.372 47.7802C183.174 47.9037 183.02 48.0464 182.911 48.2083C182.81 48.3701 182.741 48.5313 182.704 48.692C182.674 48.8526 182.661 48.9728 182.662 49.0528L182.716 52.1363L181.276 52.1615L181.175 46.4023ZM185.39 49.2092C185.382 48.7533 185.455 48.3399 185.609 47.9692C185.77 47.5903 185.988 47.2665 186.264 46.9976C186.539 46.7288 186.867 46.519 187.249 46.3683C187.63 46.2177 188.037 46.1385 188.469 46.131C188.901 46.1235 189.31 46.1883 189.697 46.3256C190.083 46.4629 190.418 46.6611 190.703 46.9201C190.988 47.1792 191.213 47.4953 191.38 47.8685C191.554 48.2335 191.645 48.644 191.653 49.0999C191.661 49.5558 191.584 49.9732 191.423 50.3521C191.269 50.7228 191.055 51.0426 190.78 51.3115C190.504 51.5803 190.176 51.7901 189.795 51.9408C189.413 52.0914 189.006 52.1705 188.574 52.1781C188.143 52.1856 187.733 52.1208 187.347 51.9835C186.96 51.8462 186.625 51.648 186.34 51.389C186.056 51.1299 185.826 50.8178 185.652 50.4528C185.485 50.0797 185.398 49.6651 185.39 49.2092ZM186.83 49.1841C186.834 49.408 186.874 49.6234 186.949 49.8301C187.033 50.0367 187.148 50.2187 187.295 50.3761C187.45 50.5335 187.632 50.6583 187.841 50.7507C188.051 50.843 188.288 50.8869 188.552 50.8823C188.816 50.8777 189.051 50.8256 189.257 50.726C189.464 50.6263 189.637 50.4953 189.778 50.3328C189.928 50.1702 190.036 49.9842 190.105 49.775C190.181 49.5657 190.217 49.349 190.213 49.125C190.21 48.9011 190.166 48.6858 190.082 48.4792C190.007 48.2725 189.891 48.0905 189.737 47.9332C189.59 47.7757 189.412 47.6508 189.202 47.5584C188.992 47.4661 188.756 47.4222 188.492 47.4268C188.228 47.4314 187.992 47.4835 187.786 47.5831C187.58 47.6828 187.402 47.8139 187.253 47.9765C187.112 48.139 187.003 48.3249 186.927 48.5343C186.858 48.7435 186.826 48.9601 186.83 49.1841ZM198.878 46.0933L198.97 51.3365C198.979 51.8565 198.923 52.3255 198.802 52.7437C198.682 53.1698 198.488 53.5293 198.221 53.822C197.962 54.1225 197.63 54.3564 197.225 54.5235C196.82 54.6906 196.337 54.779 195.777 54.7888C195.241 54.7981 194.732 54.739 194.25 54.6114C193.768 54.4838 193.319 54.2436 192.905 53.8908L193.749 52.6999C194.041 52.9588 194.345 53.1575 194.659 53.2961C194.974 53.4346 195.335 53.5003 195.743 53.4932C196.087 53.4872 196.374 53.4342 196.604 53.3341C196.842 53.234 197.028 53.0987 197.161 52.9283C197.302 52.7579 197.399 52.5521 197.45 52.3112C197.51 52.0781 197.538 51.8176 197.533 51.5296L197.525 51.1097L197.501 51.1101C197.298 51.3937 197.026 51.6105 196.685 51.7605C196.343 51.9025 195.992 51.9766 195.632 51.9829C195.2 51.9904 194.807 51.9213 194.453 51.7754C194.098 51.6216 193.79 51.4149 193.53 51.1555C193.277 50.8958 193.08 50.5872 192.937 50.2296C192.795 49.8721 192.72 49.4893 192.713 49.0814C192.706 48.6574 192.763 48.2604 192.885 47.8902C193.006 47.52 193.188 47.1968 193.432 46.9205C193.675 46.6442 193.967 46.4271 194.308 46.2691C194.658 46.103 195.056 46.016 195.504 46.0082C195.912 46.0011 196.293 46.0744 196.648 46.2283C197.003 46.3821 197.287 46.6332 197.501 46.9815L197.525 46.9811L197.51 46.1172L198.878 46.0933ZM195.827 47.2988C195.571 47.3032 195.339 47.3513 195.133 47.4429C194.926 47.5265 194.749 47.6456 194.599 47.8003C194.458 47.9468 194.345 48.1288 194.261 48.3463C194.184 48.5556 194.148 48.7883 194.153 49.0443C194.157 49.2762 194.201 49.4915 194.284 49.6901C194.376 49.8885 194.499 50.0624 194.653 50.2117C194.808 50.361 194.99 50.4779 195.2 50.5622C195.409 50.6466 195.634 50.6867 195.874 50.6825C196.138 50.6779 196.373 50.6298 196.579 50.5381C196.794 50.4464 196.972 50.3273 197.113 50.1808C197.262 50.0261 197.375 49.8441 197.452 49.6348C197.528 49.4254 197.564 49.2007 197.56 48.9608C197.551 48.4569 197.392 48.0516 197.083 47.7449C196.773 47.4383 196.355 47.2896 195.827 47.2988ZM200.508 46.0649L201.948 46.0397L201.964 46.9516L201.988 46.9512C202.142 46.6125 202.366 46.3485 202.658 46.1594C202.951 45.9702 203.289 45.8723 203.673 45.8656C203.761 45.8641 203.846 45.8706 203.926 45.8852C204.014 45.8997 204.102 45.9181 204.191 45.9406L204.215 47.3324C204.095 47.3025 203.974 47.2806 203.854 47.2667C203.742 47.2446 203.629 47.2346 203.517 47.2365C203.181 47.2424 202.911 47.3111 202.705 47.4428C202.507 47.5662 202.353 47.7089 202.244 47.8709C202.143 48.0327 202.074 48.1939 202.037 48.3546C202.007 48.5151 201.994 48.6354 201.995 48.7153L202.049 51.7989L200.609 51.824L200.508 46.0649ZM206.172 49.3505C206.227 49.7816 206.401 50.1147 206.693 50.3496C206.985 50.5845 207.335 50.6984 207.743 50.6913C208.103 50.685 208.402 50.6078 208.639 50.4596C208.885 50.3033 209.097 50.1116 209.278 49.8844L210.323 50.6463C209.994 51.0681 209.624 51.3706 209.211 51.5538C208.798 51.7371 208.363 51.8327 207.907 51.8406C207.476 51.8482 207.066 51.7833 206.68 51.646C206.293 51.5087 205.958 51.3106 205.673 51.0515C205.389 50.7924 205.159 50.4804 204.985 50.1154C204.818 49.7422 204.731 49.3277 204.723 48.8718C204.715 48.4158 204.788 48.0025 204.942 47.6318C205.103 47.2529 205.321 46.929 205.597 46.6602C205.872 46.3913 206.2 46.1816 206.582 46.0309C206.963 45.8802 207.37 45.8011 207.802 45.7936C208.202 45.7866 208.567 45.8522 208.898 45.9905C209.236 46.1206 209.523 46.3156 209.76 46.5755C210.004 46.8353 210.194 47.16 210.329 47.5497C210.472 47.9313 210.547 48.374 210.556 48.878L210.563 49.2739L206.172 49.3505ZM209.104 48.2192C209.089 47.7954 208.951 47.4657 208.691 47.2303C208.431 46.9868 208.073 46.869 207.617 46.8769C207.185 46.8845 206.843 47.0145 206.591 47.2669C206.348 47.5192 206.202 47.8538 206.153 48.2707L209.104 48.2192ZM214.95 47.409C214.663 47.022 214.284 46.8326 213.812 46.8408C213.62 46.8442 213.433 46.8954 213.25 46.9946C213.068 47.0938 212.979 47.2514 212.983 47.4674C212.986 47.6434 213.064 47.77 213.217 47.8474C213.371 47.9247 213.564 47.9893 213.797 48.0413C214.03 48.0932 214.279 48.1489 214.544 48.2083C214.817 48.2595 215.07 48.3471 215.304 48.471C215.538 48.587 215.733 48.7516 215.889 48.9649C216.045 49.1782 216.126 49.4728 216.133 49.8488C216.139 50.1927 216.068 50.486 215.92 50.7286C215.78 50.9631 215.591 51.1544 215.354 51.3026C215.124 51.4506 214.862 51.5592 214.567 51.6284C214.273 51.6975 213.977 51.7347 213.681 51.7398C213.233 51.7477 212.82 51.6909 212.442 51.5694C212.064 51.448 211.724 51.2219 211.422 50.8911L212.366 49.9745C212.554 50.1793 212.753 50.3478 212.963 50.4802C213.181 50.6044 213.442 50.6639 213.746 50.6585C213.85 50.6567 213.958 50.6428 214.07 50.6169C214.181 50.5909 214.285 50.5491 214.38 50.4915C214.475 50.4338 214.549 50.3645 214.604 50.2835C214.666 50.1944 214.697 50.0939 214.695 49.9819C214.691 49.7819 214.613 49.6353 214.459 49.5419C214.305 49.4486 214.112 49.376 213.879 49.324C213.646 49.2641 213.393 49.2125 213.12 49.1692C212.855 49.1179 212.606 49.0382 212.372 48.9303C212.138 48.8143 211.943 48.6537 211.787 48.4484C211.632 48.2431 211.551 47.9565 211.544 47.5885C211.539 47.2686 211.598 46.9915 211.722 46.7573C211.854 46.5149 212.026 46.3159 212.24 46.1602C212.453 46.0044 212.699 45.8881 212.978 45.8112C213.256 45.7343 213.54 45.6934 213.828 45.6884C214.212 45.6817 214.593 45.743 214.971 45.8724C215.349 45.9939 215.657 46.2125 215.895 46.5284L214.95 47.409ZM220.281 47.316C219.994 46.9289 219.615 46.7395 219.143 46.7478C218.951 46.7511 218.764 46.8024 218.582 46.9016C218.399 47.0008 218.31 47.1584 218.314 47.3743C218.317 47.5503 218.395 47.677 218.548 47.7543C218.702 47.8316 218.895 47.8963 219.128 47.9482C219.361 48.0002 219.61 48.0558 219.875 48.1152C220.148 48.1664 220.401 48.254 220.636 48.378C220.87 48.4939 221.065 48.6585 221.22 48.8718C221.376 49.0852 221.457 49.3798 221.464 49.7557C221.47 50.0997 221.399 50.393 221.251 50.6356C221.111 50.87 220.923 51.0614 220.685 51.2095C220.456 51.3576 220.193 51.4662 219.899 51.5353C219.604 51.6045 219.308 51.6416 219.012 51.6468C218.565 51.6546 218.151 51.5978 217.773 51.4764C217.395 51.355 217.055 51.1289 216.753 50.7981L217.697 49.8815C217.885 50.0862 218.084 50.2548 218.294 50.3871C218.513 50.5113 218.774 50.5708 219.078 50.5655C219.182 50.5637 219.289 50.5498 219.401 50.5238C219.512 50.4979 219.616 50.4561 219.711 50.3984C219.806 50.3407 219.881 50.2714 219.935 50.1905C219.998 50.1014 220.028 50.0008 220.026 49.8888C220.022 49.6889 219.944 49.5422 219.79 49.4489C219.637 49.3556 219.443 49.2829 219.21 49.231C218.977 49.171 218.724 49.1194 218.451 49.0762C218.187 49.0248 217.937 48.9451 217.703 48.8372C217.469 48.7213 217.274 48.5607 217.119 48.3553C216.963 48.15 216.882 47.8634 216.876 47.4955C216.87 47.1755 216.929 46.8984 217.053 46.6642C217.185 46.4219 217.358 46.2228 217.571 46.0671C217.784 45.9114 218.03 45.795 218.309 45.7182C218.588 45.6413 218.871 45.6003 219.159 45.5953C219.543 45.5886 219.924 45.65 220.302 45.7794C220.68 45.9008 220.988 46.1195 221.226 46.4354L220.281 47.316Z" fill="#3F8CFF"/>
<path d="M237.334 43.9599L238.846 43.9335L238.994 52.4282L237.483 52.4546L237.334 43.9599ZM240.625 46.6389L241.993 46.615L242.009 47.5388L242.033 47.5384C242.164 47.2481 242.368 46.9965 242.644 46.7836C242.92 46.5628 243.298 46.4482 243.778 46.4398C244.162 46.4331 244.487 46.4914 244.754 46.6148C245.028 46.738 245.251 46.9022 245.422 47.1072C245.594 47.3122 245.718 47.5501 245.795 47.8208C245.872 48.0915 245.912 48.3748 245.918 48.6708L245.981 52.3062L244.541 52.3314L244.49 49.4158C244.488 49.2558 244.477 49.08 244.457 48.8883C244.438 48.6886 244.391 48.5054 244.316 48.3387C244.249 48.1639 244.142 48.0217 243.996 47.9122C243.85 47.7948 243.653 47.7382 243.405 47.7425C243.165 47.7467 242.962 47.7903 242.795 47.8732C242.637 47.956 242.503 48.0663 242.393 48.2042C242.291 48.342 242.218 48.4993 242.173 48.6762C242.128 48.853 242.107 49.0374 242.111 49.2293L242.166 52.3728L240.726 52.398L240.625 46.6389ZM251.149 43.7187L254.101 43.6672C254.509 43.6601 254.902 43.6933 255.279 43.7667C255.664 43.832 256.006 43.954 256.305 44.1328C256.605 44.3116 256.845 44.5555 257.026 44.8643C257.208 45.1732 257.303 45.5676 257.311 46.0476C257.322 46.6635 257.159 47.1824 256.822 47.6043C256.493 48.0261 256.014 48.2865 255.384 48.3856L257.705 52.1016L255.881 52.1334L253.85 48.5683L252.747 48.5876L252.809 52.1871L251.298 52.2134L251.149 43.7187ZM253.9 47.2713C254.116 47.2675 254.332 47.2557 254.547 47.236C254.763 47.2082 254.958 47.1568 255.133 47.0817C255.315 46.9985 255.461 46.88 255.571 46.726C255.68 46.5641 255.732 46.3432 255.727 46.0632C255.723 45.8152 255.667 45.6162 255.561 45.466C255.454 45.3159 255.316 45.2062 255.147 45.1372C254.977 45.0601 254.789 45.0114 254.58 44.9911C254.38 44.9706 254.184 44.962 253.992 44.9653L252.684 44.9882L252.724 47.2918L253.9 47.2713ZM259.834 49.6881C259.889 50.1192 260.063 50.4522 260.355 50.6871C260.647 50.9221 260.997 51.036 261.405 51.0289C261.765 51.0226 262.064 50.9454 262.301 50.7972C262.547 50.6409 262.759 50.4491 262.939 50.222L263.985 50.9838C263.656 51.4056 263.285 51.7082 262.872 51.8914C262.46 52.0746 262.025 52.1702 261.569 52.1782C261.137 52.1857 260.728 52.1208 260.342 51.9836C259.955 51.8463 259.62 51.6481 259.335 51.389C259.051 51.13 258.821 50.8179 258.647 50.4529C258.48 50.0798 258.393 49.6652 258.385 49.2093C258.377 48.7534 258.45 48.34 258.603 47.9693C258.765 47.5904 258.983 47.2666 259.258 46.9977C259.534 46.7289 259.862 46.5191 260.244 46.3684C260.625 46.2177 261.032 46.1386 261.464 46.1311C261.864 46.1241 262.229 46.1898 262.559 46.328C262.898 46.4581 263.185 46.6531 263.422 46.913C263.666 47.1728 263.856 47.4976 263.991 47.8873C264.133 48.2688 264.209 48.7116 264.218 49.2155L264.225 49.6114L259.834 49.6881ZM262.766 48.5567C262.751 48.1329 262.613 47.8033 262.353 47.5678C262.093 47.3243 261.734 47.2065 261.279 47.2145C260.847 47.222 260.505 47.352 260.253 47.6044C260.01 47.8567 259.863 48.1913 259.815 48.6083L262.766 48.5567ZM264.732 46.2181L266.304 46.1906L267.91 50.1952L267.934 50.1948L269.412 46.1364L270.887 46.1106L268.72 51.9093L267.184 51.9361L264.732 46.2181ZM271.758 46.0954L273.198 46.0703L273.298 51.8294L271.858 51.8546L271.758 46.0954ZM271.52 44.1433C271.516 43.9113 271.596 43.7099 271.761 43.539C271.934 43.3599 272.153 43.2681 272.417 43.2635C272.681 43.2589 272.902 43.339 273.081 43.5039C273.268 43.6607 273.363 43.8631 273.368 44.111C273.372 44.359 273.283 44.5686 273.102 44.7398C272.929 44.9028 272.711 44.9866 272.447 44.9912C272.183 44.9958 271.961 44.9157 271.782 44.7508C271.611 44.5778 271.524 44.3753 271.52 44.1433ZM276.062 49.4048C276.117 49.8359 276.291 50.1689 276.583 50.4039C276.875 50.6388 277.225 50.7527 277.633 50.7456C277.993 50.7393 278.292 50.6621 278.529 50.5139C278.775 50.3576 278.987 50.1659 279.167 49.9387L280.213 50.7006C279.884 51.1224 279.513 51.4249 279.1 51.6081C278.688 51.7914 278.253 51.887 277.797 51.8949C277.365 51.9025 276.956 51.8376 276.57 51.7003C276.183 51.563 275.848 51.3649 275.563 51.1058C275.279 50.8467 275.049 50.5347 274.875 50.1697C274.708 49.7965 274.621 49.382 274.613 48.926C274.605 48.4701 274.678 48.0568 274.831 47.686C274.993 47.3072 275.211 46.9833 275.486 46.7145C275.762 46.4456 276.09 46.2358 276.472 46.0852C276.853 45.9345 277.26 45.8554 277.692 45.8478C278.092 45.8409 278.457 45.9065 278.787 46.0447C279.126 46.1749 279.413 46.3699 279.65 46.6298C279.894 46.8896 280.084 47.2143 280.219 47.604C280.361 47.9856 280.437 48.4283 280.446 48.9322L280.453 49.3282L276.062 49.4048ZM278.994 48.2735C278.979 47.8497 278.841 47.52 278.581 47.2845C278.321 47.041 277.962 46.9233 277.507 46.9312C277.075 46.9388 276.733 47.0688 276.481 47.3212C276.238 47.5735 276.091 47.9081 276.043 48.325L278.994 48.2735ZM280.96 45.9348L282.52 45.9076L283.838 49.9172L283.862 49.9168L284.956 45.8651L286.515 45.8378L287.834 49.8474L287.858 49.847L288.987 45.7947L290.439 45.7694L288.584 51.5626L287.156 51.5875L285.719 47.676L285.695 47.6764L284.552 51.633L283.065 51.659L280.96 45.9348Z" fill="#3F8CFF"/>
<path d="M321.263 43.752L324.61 43.6936C325.17 43.6838 325.712 43.7624 326.235 43.9293C326.758 44.0882 327.222 44.3401 327.628 44.6851C328.034 45.03 328.362 45.4684 328.611 46.0001C328.86 46.5238 328.991 47.1456 329.004 47.8655C329.017 48.5934 328.888 49.2278 328.617 49.7686C328.354 50.3012 328.006 50.7474 327.572 51.107C327.146 51.4585 326.667 51.7269 326.134 51.9122C325.609 52.0894 325.091 52.1825 324.579 52.1914L321.411 52.2467L321.263 43.752ZM324.027 50.8328C324.499 50.8246 324.942 50.7649 325.356 50.6536C325.778 50.5342 326.143 50.3598 326.451 50.1304C326.759 49.893 326.998 49.5928 327.167 49.2298C327.345 48.8586 327.429 48.4131 327.42 47.8932C327.411 47.3813 327.323 46.9427 327.157 46.5776C326.991 46.2124 326.762 45.9204 326.47 45.7014C326.186 45.4744 325.847 45.3122 325.453 45.2151C325.067 45.1098 324.642 45.0612 324.178 45.0693L322.798 45.0934L322.899 50.8525L324.027 50.8328ZM330.045 49.2156C330.037 48.7596 330.11 48.3463 330.263 47.9756C330.425 47.5967 330.643 47.2728 330.919 47.004C331.194 46.7351 331.522 46.5254 331.904 46.3747C332.285 46.224 332.692 46.1449 333.124 46.1374C333.556 46.1298 333.965 46.1947 334.351 46.332C334.738 46.4693 335.073 46.6674 335.358 46.9265C335.642 47.1856 335.868 47.5017 336.035 47.8748C336.209 48.2398 336.3 48.6503 336.308 49.1062C336.316 49.5622 336.239 49.9796 336.078 50.3585C335.924 50.7292 335.71 51.049 335.435 51.3178C335.159 51.5867 334.831 51.7964 334.449 51.9471C334.068 52.0978 333.661 52.1769 333.229 52.1844C332.797 52.192 332.388 52.1271 332.002 51.9898C331.615 51.8526 331.28 51.6544 330.995 51.3953C330.711 51.1362 330.481 50.8242 330.307 50.4592C330.14 50.086 330.053 49.6715 330.045 49.2156ZM331.485 49.1904C331.489 49.4144 331.528 49.6297 331.604 49.8365C331.688 50.043 331.803 50.225 331.95 50.3825C332.104 50.5398 332.287 50.6647 332.496 50.757C332.706 50.8494 332.943 50.8933 333.207 50.8886C333.471 50.884 333.706 50.8319 333.912 50.7323C334.118 50.6327 334.292 50.5016 334.433 50.3392C334.582 50.1765 334.691 49.9906 334.76 49.7814C334.836 49.572 334.872 49.3553 334.868 49.1314C334.864 48.9074 334.821 48.6921 334.737 48.4856C334.661 48.2789 334.546 48.0968 334.391 47.9395C334.245 47.7821 334.066 47.6572 333.857 47.5648C333.647 47.4724 333.41 47.4286 333.146 47.4332C332.882 47.4378 332.647 47.4899 332.441 47.5895C332.235 47.6891 332.057 47.8202 331.908 47.9829C331.767 48.1454 331.658 48.3313 331.581 48.5407C331.513 48.7499 331.481 48.9665 331.485 49.1904ZM337.606 46.2032L338.974 46.1793L338.99 47.1031L339.014 47.1027C339.145 46.8124 339.348 46.5608 339.625 46.3479C339.901 46.1271 340.279 46.0125 340.759 46.0041C341.143 45.9974 341.468 46.0557 341.734 46.1791C342.008 46.3023 342.231 46.4665 342.403 46.6715C342.574 46.8765 342.698 47.1144 342.775 47.3851C342.852 47.6558 342.893 47.9391 342.898 48.2351L342.962 51.8706L341.522 51.8957L341.471 48.9801C341.468 48.8202 341.457 48.6443 341.438 48.4526C341.418 48.2529 341.371 48.0697 341.296 47.903C341.229 47.7282 341.122 47.586 340.977 47.4765C340.83 47.3591 340.633 47.3025 340.385 47.3068C340.146 47.311 339.942 47.3546 339.776 47.4375C339.617 47.5203 339.483 47.6306 339.373 47.7685C339.272 47.9063 339.199 48.0636 339.154 48.2405C339.109 48.4173 339.088 48.6017 339.091 48.7936L339.146 51.9371L337.706 51.9623L337.606 46.2032ZM345.706 49.4463C345.762 49.8774 345.936 50.2104 346.228 50.4453C346.52 50.6803 346.87 50.7942 347.278 50.7871C347.638 50.7808 347.937 50.7035 348.174 50.5554C348.419 50.3991 348.632 50.2073 348.812 49.9802L349.858 50.742C349.529 51.1638 349.158 51.4663 348.745 51.6496C348.332 51.8328 347.898 51.9284 347.442 51.9364C347.01 51.9439 346.601 51.879 346.214 51.7418C345.828 51.6045 345.492 51.4063 345.208 51.1472C344.923 50.8882 344.694 50.5761 344.519 50.2111C344.353 49.838 344.266 49.4234 344.258 48.9675C344.25 48.5116 344.323 48.0982 344.476 47.7275C344.637 47.3486 344.856 47.0248 345.131 46.7559C345.407 46.4871 345.735 46.2773 346.116 46.1266C346.498 45.9759 346.905 45.8968 347.336 45.8893C347.736 45.8823 348.102 45.9479 348.432 46.0862C348.77 46.2163 349.058 46.4113 349.294 46.6712C349.539 46.931 349.729 47.2557 349.863 47.6455C350.006 48.027 350.082 48.4698 350.091 48.9737L350.098 49.3696L345.706 49.4463ZM348.639 48.3149C348.624 47.8911 348.486 47.5615 348.226 47.326C347.965 47.0825 347.607 46.9647 347.151 46.9727C346.719 46.9802 346.378 47.1102 346.126 47.3626C345.882 47.6149 345.736 47.9495 345.687 48.3664L348.639 48.3149Z" fill="#3F8CFF"/>
<path fill-rule="evenodd" clip-rule="evenodd" d="M162.104 231C161.629 231 161.234 230.623 161.21 230.139L152.001 38.9485C151.977 38.4497 152.359 38.0258 152.853 38.0008C153.327 37.9799 153.765 38.3609 153.79 38.8617L162.999 230.051C163.023 230.55 162.642 230.975 162.148 230.999L162.104 231" fill="#3F8CFF"/>
<path fill-rule="evenodd" clip-rule="evenodd" d="M310.103 231C309.629 231 309.234 230.623 309.21 230.139L300.001 38.9485C299.977 38.4497 300.358 38.0258 300.852 38.0008C301.319 37.9799 301.764 38.3609 301.79 38.8617L310.999 230.051C311.023 230.55 310.641 230.975 310.147 230.999L310.103 231" fill="#3F8CFF"/>
<path fill-rule="evenodd" clip-rule="evenodd" d="M236.104 231C235.629 231 235.234 230.623 235.21 230.139L226.001 38.9485C225.977 38.4497 226.358 38.0258 226.853 38.0008C227.34 37.9799 227.765 38.3619 227.79 38.8617L236.999 230.051C237.023 230.55 236.641 230.975 236.147 230.999L236.104 231" fill="#3F8CFF"/>
<path fill-rule="evenodd" clip-rule="evenodd" d="M367.093 59H88.9072C88.4061 59 88 58.5524 88 58C88 57.4476 88.4061 57 88.9072 57H367.093C367.594 57 368 57.4476 368 58C368 58.5524 367.594 59 367.093 59" fill="#3F8CFF"/>
<path fill-rule="evenodd" clip-rule="evenodd" d="M114.857 131.024C112.073 114.328 110.902 95.652 111.006 81.821L153.282 80.189L155.65 128.825L114.857 131.024M157.462 128.727L155.096 80.119L158.188 80C158.732 95.078 160.592 111.415 163.15 128.421L157.462 128.727" fill="#DADFE4"/>
<path fill-rule="evenodd" clip-rule="evenodd" d="M156.266 129L154 80.0704L155.736 80L158 128.901L156.266 129" fill="#B0C9DF"/>
<path fill-rule="evenodd" clip-rule="evenodd" d="M164 126.397L115.939 129C113.168 112.312 111.439 96.1381 111 80.6037L159.062 78C159.602 93.0716 161.453 109.401 164 126.397" fill="#12499A"/>
<path fill-rule="evenodd" clip-rule="evenodd" d="M224.998 146L176 143.074L176.002 95L225 97.9257L224.998 146" fill="#DADFE4"/>
<path fill-rule="evenodd" clip-rule="evenodd" d="M223.43 145L175 142.091L175.57 94L224 96.9082L223.43 145" fill="#FFFFFE"/>
<path fill-rule="evenodd" clip-rule="evenodd" d="M309.93 135.531C309.96 134.761 309.987 133.998 310.01 133.244L318.32 132.816C318.87 127.716 318.519 121.132 317.641 113.68C318.865 122.148 319.589 130.323 319.06 135.232L309.93 135.531M269.288 110.957L268.914 110.899C268.103 104.65 266.982 98.1141 265.531 91.4121C267.009 98.1541 268.299 104.708 269.288 110.957" fill="#DADFE4"/>
<path fill-rule="evenodd" clip-rule="evenodd" d="M271.719 135L318.736 132.575C319.942 121.364 316.822 103.006 313.309 84L265 87.0755C269.026 104.857 271.93 121.503 271.719 135" fill="#6D5DD3"/>
<path fill-rule="evenodd" clip-rule="evenodd" d="M137.554 211.401C136.176 197.946 135.968 182.069 131 164.551L157.622 161.388L159.946 209.125L137.554 211.401M161.754 208.941L159.429 161.173L177.717 159C181.162 168.833 186.972 195.069 187.1 206.366L161.754 208.941" fill="#DADFE4"/>
<path fill-rule="evenodd" clip-rule="evenodd" d="M160.25 209L158 161.215L159.749 161L162 208.816L160.25 209" fill="#B0C9DF"/>
<path fill-rule="evenodd" clip-rule="evenodd" d="M139.153 210L186.943 204.843C187.534 193.669 183.432 175.645 178.905 157L131 162.652C134.879 180.103 138.63 196.615 139.153 210" fill="#FDC748"/>
<path fill-rule="evenodd" clip-rule="evenodd" d="M306.088 166.388L258 157.37C261.146 144.436 263.079 127.978 262.982 110L269.067 110.953C270.291 120.379 270.809 129.155 270.688 136.873L294.895 136.082C295.509 136.919 296.106 137.664 296.755 138.422C297.464 139.255 298.185 140.084 298.948 140.88C300.475 142.471 302.116 143.983 303.94 145.393C304.321 145.68 304.709 145.965 305.107 146.246L306.088 166.388M307.633 160.817L306.983 147.474C307.696 147.902 308.445 148.306 309.246 148.675C308.84 153.106 308.307 157.309 307.633 160.817M309.913 139.292C309.414 139.062 308.912 138.811 308.413 138.545C307.774 138.21 307.135 137.852 306.496 137.474L306.41 135.705L310.083 135.585C310.035 136.806 309.978 138.046 309.913 139.292M304.623 136.316C304.354 136.143 304.085 135.967 303.816 135.79L304.596 135.764L304.623 136.316" fill="#DADFE4"/>
<path fill-rule="evenodd" clip-rule="evenodd" d="M306.624 166.708L306.492 166.683L305.511 146.541C306.112 146.964 306.734 147.377 307.387 147.769L308.037 161.112C307.621 163.279 307.151 165.18 306.624 166.708M306.9 137.769C306.275 137.399 305.65 137.012 305.027 136.611L305 136.059L306.814 136L306.9 137.769" fill="#B0C9DF"/>
<path fill-rule="evenodd" clip-rule="evenodd" d="M270.621 136.92C270.742 129.202 270.224 120.426 269 111L269.374 111.058C270.768 119.858 271.565 128.054 271.451 135.333L296.564 134.041L294.628 135.854C294.695 135.947 294.761 136.038 294.828 136.129L270.621 136.92M303.749 135.837C303.633 135.76 303.517 135.683 303.402 135.606C302.537 135.046 301.671 134.438 300.821 133.822L304.423 133.637L304.529 135.811L303.749 135.837M306.343 135.752L306.236 133.543L310.096 133.345C310.073 134.099 310.046 134.862 310.016 135.632L306.343 135.752" fill="#719CC6"/>
<path fill-rule="evenodd" clip-rule="evenodd" d="M304.11 135L304 133.083L305.889 133L306 134.948L304.11 135" fill="#83A9CE"/>
<path fill-rule="evenodd" clip-rule="evenodd" d="M271.085 135C271.199 127.803 270.399 119.7 269 111L309.785 117.29C310.03 120.855 310.074 126.612 309.872 133.035L305.998 133.23L304.178 133.323L300.563 133.506C299.794 132.956 299.038 132.401 298.305 131.864L296.29 133.723L271.085 135" fill="#3769A4"/>
<path fill-rule="evenodd" clip-rule="evenodd" d="M259 155.164L305.784 163C309.406 152.567 310.326 134.382 311 115.494L262.805 108C262.902 125.83 262.141 142.336 259 155.164" fill="#FFFFFE"/>
<path fill-rule="evenodd" clip-rule="evenodd" d="M372.861 112C373.807 113.013 374.605 113.911 375.421 114.898C376.233 115.862 377.024 116.838 377.803 117.828C379.355 119.808 380.841 121.847 382.246 123.96C383.637 126.088 385.007 128.236 386.221 130.526C387.456 132.803 388.614 135.146 389.563 137.668L389.928 138.604L390.019 138.842L390.133 139.186L390.351 139.877C390.466 140.315 390.561 140.739 390.647 141.158C390.711 141.557 390.785 141.967 390.832 142.353C391.01 143.899 391.022 145.31 390.979 146.675C390.899 149.397 390.537 151.951 390.121 154.461C389.232 159.477 387.959 164.241 386.308 169L381.111 167.788C381.497 163.058 381.851 158.236 381.98 153.592C382.059 151.274 382.025 148.972 381.874 146.837C381.794 145.773 381.652 144.755 381.453 143.903L381.303 143.308L381.138 142.83L380.576 141.668C378.686 137.777 376.183 133.949 373.517 130.237C372.177 128.379 370.767 126.554 369.342 124.742C368.632 123.835 367.905 122.938 367.169 122.057L365 119.488L372.861 112" fill="#BE5B52"/>
<path fill-rule="evenodd" clip-rule="evenodd" d="M381.714 166L378 169.86L385.247 174C385.247 174 387.754 170.772 386.772 167.472L381.714 166" fill="#BD5B52"/>
<path fill-rule="evenodd" clip-rule="evenodd" d="M373 175.631L380.017 178L385 174.089L377.795 170L373 175.631" fill="#BD5B52"/>
<path fill-rule="evenodd" clip-rule="evenodd" d="M392.973 192L347 181.973C349.454 165.844 352.73 150.46 357.027 136L403 146.026C398.94 160.086 395.731 175.645 392.973 192" fill="#3769A4"/>
<path fill-rule="evenodd" clip-rule="evenodd" d="M386.691 193L342 179.691L355.309 135L400 148.308L386.691 193" fill="#FFFFFE"/>
<path fill-rule="evenodd" clip-rule="evenodd" d="M345.998 82.0276C345.976 82.5798 345.735 83.0148 345.459 82.9996C345.184 82.9863 344.979 82.5265 345.002 81.9743C345.024 81.4221 345.265 80.9861 345.541 81.0003C345.816 81.0156 346.021 81.4754 345.998 82.0276" fill="#132529"/>
<path fill-rule="evenodd" clip-rule="evenodd" d="M346 83C346 83 344.52 86.5622 343 88.2449C343.964 89.3259 345.71 88.9288 345.71 88.9288L346 83" fill="#A92D2F"/>
<path fill-rule="evenodd" clip-rule="evenodd" d="M348.743 78.9971L348.933 78.9052C349.038 78.7981 349.017 78.6432 348.888 78.5586C347.589 77.7171 346.265 78.0716 346.208 78.0876C346.05 78.1317 345.964 78.2721 346.015 78.4009C346.067 78.5289 346.238 78.5969 346.394 78.5543C346.437 78.5434 347.475 78.2764 348.51 78.9471C348.578 78.9913 348.662 79.0072 348.743 78.9971" fill="#132529"/>
<path fill-rule="evenodd" clip-rule="evenodd" d="M364.166 91C363.059 96.1634 362.338 103.316 366 106.762C366 106.762 364.483 112 354.637 112C343.81 112 349.488 107.404 349.488 107.404C354.006 106.042 354.034 101.047 353.056 97.0355L364.166 91" fill="#BD5B52"/>
<path fill-rule="evenodd" clip-rule="evenodd" d="M340.089 353.338C339.969 353.338 339.858 353.349 339.759 353.377C339.601 353.419 339.491 353.497 339.422 353.615C339.299 353.826 339.341 353.931 339.384 353.992C339.713 354.457 341.532 354.468 342.872 354.278C342.209 353.936 340.93 353.338 340.089 353.338ZM341.212 354.733C340.289 354.733 339.398 354.605 339.105 354.191C339.002 354.046 338.923 353.799 339.129 353.446C339.244 353.248 339.427 353.114 339.674 353.048C340.875 352.721 343.372 354.155 343.477 354.216L343.559 354.391L343.422 354.531C342.962 354.623 342.072 354.733 341.212 354.733V354.733Z" fill="#3769A4"/>
<path fill-rule="evenodd" clip-rule="evenodd" d="M341.781 351.341L341.679 351.347C341.372 351.377 341.35 351.498 341.344 351.538C341.259 352.026 342.412 353.249 343.291 353.781C343.206 353.216 342.965 352.056 342.37 351.563C342.191 351.414 341.997 351.341 341.781 351.341ZM343.499 354.258L343.43 354.243C342.566 353.854 340.866 352.297 341.008 351.484C341.041 351.292 341.18 351.055 341.649 351.007C341.999 350.972 342.313 351.07 342.59 351.3C343.495 352.051 343.664 353.989 343.671 354.071L343.599 354.226L343.499 354.258V354.258Z" fill="#3769A4"/>
<path fill-rule="evenodd" clip-rule="evenodd" d="M352 354H344.524L344 337H351.477L352 354" fill="#BD5B52"/>
<path fill-rule="evenodd" clip-rule="evenodd" d="M344.287 353H352.054C352.345 353 352.594 353.2 352.653 353.481L353.977 359.736C354.115 360.384 353.609 360.998 352.938 360.986C350.137 360.939 346.09 360.777 342.57 360.777C338.452 360.777 335.855 361 331.026 361C328.107 361 327.334 358.079 328.559 357.815C334.139 356.61 337.722 356.482 342.568 353.549C343.094 353.23 343.674 353 344.287 353" fill="#0A1629"/>
<path fill-rule="evenodd" clip-rule="evenodd" d="M369.224 108C376.22 108.073 386 125.276 386 125.276L375.157 136C375.157 136 368.05 132.792 364.101 124.966C359.965 116.766 362.071 107.926 369.224 108" fill="#3769A4"/>
<path fill-rule="evenodd" clip-rule="evenodd" d="M375.376 136C375.619 130.863 376.053 125.456 376.772 119.965C376.84 119.448 376.873 118.935 376.874 118.428C376.875 114.551 374.961 111.044 372 109C378.153 112.751 385 125.737 385 125.737L383.493 127.343L375.376 136" fill="#3A81EB"/>
<path fill-rule="evenodd" clip-rule="evenodd" d="M336.443 115.018C334.885 122.739 333.767 138.595 337.603 170H375.798C376.091 164.912 373.636 142.71 376.896 118.872C377.776 112.438 372.959 106.617 366.481 106.26C366.341 106.252 366.202 106.245 366.062 106.238C361.186 106.003 354.122 105.848 349.826 106.239C348.033 106.402 346.271 106.661 344.701 106.938C340.552 107.672 337.277 110.886 336.443 115.018" fill="#3769A4"/>
<path fill-rule="evenodd" clip-rule="evenodd" d="M376.094 170.43H337.608C336.159 158.574 335.411 148.921 335.126 141.074C338.998 140.097 343.394 136.67 344.914 132.451C348.374 128.946 352.691 123.406 353.097 117.287C353.119 116.953 353.13 116.622 353.13 116.294C353.128 111.202 350.475 106.892 345.886 106.892C345.166 106.892 344.399 106.998 343.587 107.224C343.969 107.109 344.361 107.016 344.76 106.945C346.342 106.666 348.117 106.405 349.924 106.241C351.834 106.067 354.286 106 356.853 106C360.103 106 363.538 106.108 366.284 106.24C366.425 106.247 366.565 106.254 366.706 106.262C372.717 106.594 377.308 111.59 377.305 117.436C377.304 117.938 377.27 118.447 377.2 118.959C375.856 128.779 375.476 138.322 375.476 146.523C375.476 157.189 376.119 165.583 376.119 169.355C376.119 169.77 376.111 170.13 376.094 170.43M335.07 139.367C335.036 138.203 335.013 137.082 335 136C335.033 135.965 335.067 135.93 335.101 135.895C335.042 136.97 335.04 138.129 335.07 139.367" fill="#3F8CFF"/>
<path fill-rule="evenodd" clip-rule="evenodd" d="M334.528 142C334.505 141.316 334.485 140.648 334.472 140C334.488 140.655 334.507 141.323 334.528 142" fill="#9AA9B8"/>
<path fill-rule="evenodd" clip-rule="evenodd" d="M335.076 142C335.055 141.397 335.036 140.802 335.019 140.218C334.989 138.926 334.991 137.717 335.051 136.595C335.336 136.29 335.62 135.983 335.901 135.674C336.155 135.396 336.408 135.118 336.66 134.837L340.567 137.042C340.567 137.042 342.576 135.529 345 133C343.459 137.403 339.002 140.98 335.076 142" fill="#3576D6"/>
<path fill-rule="evenodd" clip-rule="evenodd" d="M351.201 345.589H351.198L350.939 337H350.943L351.201 345.589" fill="#BEBFBB"/>
<path fill-rule="evenodd" clip-rule="evenodd" d="M351 346H344.242V345.984L344 337H350.757L351 346" fill="#914642"/>
<path fill-rule="evenodd" clip-rule="evenodd" d="M365.931 81.7904C365.105 88.8503 364.987 93.0176 361.157 96.5053C355.398 101.75 346.699 98.1547 345.366 91.0224C344.167 84.6025 345.719 74.1374 352.91 71.6026C359.996 69.1056 366.758 74.7316 365.931 81.7904" fill="#BD5B52"/>
<path fill-rule="evenodd" clip-rule="evenodd" d="M351.07 84.3181C348.856 84.8133 347.854 79.6555 350.109 77.6748C348.104 76.6844 345.203 75.2503 344.237 73.0943C343.126 70.6184 346.141 67.6473 348.731 67.7711C347.895 66.1201 349.749 61.7021 355.028 63.3699C360.43 65.0753 362.807 67.6057 362.807 67.6057C362.807 67.6057 364.551 61.8843 368.227 66.5054C371.492 70.6124 370.2 74.1203 370.2 74.1203C370.2 74.1203 375.046 78.6651 373.793 82.0482C372.54 85.4323 369.783 86.6287 369.783 86.6287C369.783 86.6287 370.516 94.5813 364.62 96.4918C358.726 98.4032 355.014 94.4694 355.506 92.1995C351.696 92.4065 347.812 87.3715 351.07 84.3181" fill="#233862"/>
<path fill-rule="evenodd" clip-rule="evenodd" d="M353.965 84.2888C353.714 86.2465 352.688 88.0436 351.522 89.1894C349.77 90.9125 348.149 89.6799 348.013 87.4474C347.889 85.4379 348.654 82.1197 350.713 81.2339C352.741 80.3618 354.251 82.0499 353.965 84.2888" fill="#BD5B52"/>
<path fill-rule="evenodd" clip-rule="evenodd" d="M413 344.678L406.484 347L400 330.323L406.516 328L413 344.678" fill="#BD5B52"/>
<path fill-rule="evenodd" clip-rule="evenodd" d="M401.695 347.404C401.601 347.479 401.521 347.558 401.46 347.64C401.362 347.771 401.324 347.9 401.343 348.035C401.377 348.277 401.475 348.334 401.546 348.355C402.092 348.517 403.528 347.401 404.464 346.424C403.731 346.565 402.356 346.885 401.695 347.404ZM403.441 347.807C402.715 348.378 401.937 348.828 401.449 348.684C401.279 348.634 401.064 348.488 401.008 348.084C400.976 347.858 401.037 347.638 401.19 347.434C401.933 346.435 404.781 346.018 404.902 346L405.074 346.088L405.053 346.282C404.748 346.639 404.117 347.275 403.441 347.807V347.807Z" fill="#3769A4"/>
<path fill-rule="evenodd" clip-rule="evenodd" d="M401.583 345.533L401.506 345.601C401.284 345.815 401.342 345.923 401.361 345.958C401.596 346.395 403.259 346.643 404.279 346.518C403.862 346.125 402.955 345.363 402.183 345.344C401.951 345.337 401.753 345.4 401.583 345.533ZM404.737 346.764L404.673 346.795C403.754 347.023 401.455 346.851 401.064 346.123C400.972 345.952 400.934 345.68 401.273 345.353C401.526 345.108 401.834 344.991 402.193 345C403.37 345.031 404.701 346.45 404.757 346.511L404.796 346.677L404.737 346.764V346.764Z" fill="#3769A4"/>
<path fill-rule="evenodd" clip-rule="evenodd" d="M405.51 344.89L411.58 340.136C411.807 339.957 412.135 339.955 412.369 340.129L417.586 344.006C418.126 344.409 418.142 345.179 417.61 345.581C415.39 347.261 411.106 350.7 408.489 353.016C405.429 355.724 407.811 353.913 404.223 357.089C402.053 359.009 399.399 357.449 400.121 356.455C403.409 351.932 404.109 349.24 404.533 346.354C404.619 345.766 405.031 345.266 405.51 344.89" fill="#0A1629"/>
<path fill-rule="evenodd" clip-rule="evenodd" d="M300 132.815L297.314 127L290 131.552C290 131.552 292.41 136.504 297.4 135.958L300 132.815" fill="#BD5B52"/>
<path fill-rule="evenodd" clip-rule="evenodd" d="M290.626 125.599L288.876 127.077C287.74 128.035 287.704 129.746 288.796 130.751L290.155 132L298 127.248L293.293 125.21C292.402 124.826 291.364 124.976 290.626 125.599" fill="#BD5B52"/>
<path fill-rule="evenodd" clip-rule="evenodd" d="M403.105 339.625L403 339.354L403.105 339.625M409.499 337.331L407.826 333.001L407.829 333L409.502 337.33L409.499 337.331" fill="#BEBFBB"/>
<path fill-rule="evenodd" clip-rule="evenodd" d="M403.35 340L403.241 339.714L402 336.448L408.26 333L410 337.576L403.35 340" fill="#914642"/>
<path fill-rule="evenodd" clip-rule="evenodd" d="M351 171C351 171 363.066 226.417 367.681 246.988C372.735 269.516 399.326 338 399.326 338L411 331.687C411 331.687 398.512 277.957 389.384 248.646C386.074 224.417 375.955 171 375.955 171H351" fill="#0A1629"/>
<path fill-rule="evenodd" clip-rule="evenodd" d="M396 334.4L398.418 339L413 333.484L411.84 329L396 334.4" fill="#3F8CFF"/>
<path fill-rule="evenodd" clip-rule="evenodd" d="M367.614 248C367.539 247.657 367.461 247.324 367.385 247C367.387 247.001 367.388 247.001 367.39 247.002C367.461 247.3 367.536 247.606 367.615 247.919C367.614 247.946 367.614 247.974 367.614 248" fill="#A0A29F"/>
<path fill-rule="evenodd" clip-rule="evenodd" d="M367.568 247.795C367.566 247.794 367.565 247.794 367.563 247.793C367.518 247.593 367.473 247.397 367.431 247.205H367.433C367.476 247.398 367.521 247.595 367.568 247.795" fill="#939692"/>
<path fill-rule="evenodd" clip-rule="evenodd" d="M367.905 247H367.904C367.898 246.974 367.892 246.946 367.887 246.92C367.642 245.717 367.379 244.406 367.094 243H367.097C367.379 244.406 367.646 245.719 367.89 246.923C367.895 246.948 367.9 246.975 367.905 247" fill="#1D5697"/>
<path fill-rule="evenodd" clip-rule="evenodd" d="M367 243H366.998C366.69 241.457 366.355 239.781 366 238C366.355 239.782 366.69 241.456 367 243" fill="#8593A0"/>
<path fill-rule="evenodd" clip-rule="evenodd" d="M367.985 248C367.909 247.678 367.837 247.363 367.768 247.056C367.723 246.855 367.679 246.657 367.637 246.463C367.633 246.44 367.627 246.416 367.622 246.393C367.386 245.297 367.129 244.102 366.856 242.822C366.502 241.174 366.121 239.386 365.716 237.484C363.213 225.707 359.829 209.617 357 196.14C357.28 196.045 357.581 196 357.896 196C358.062 196 358.232 196.012 358.405 196.037C367.146 197.247 368.144 229.19 367.985 248" fill="black"/>
<path fill-rule="evenodd" clip-rule="evenodd" d="M337.621 171C337.621 171 334.552 224.707 335.056 246.613C335.579 269.397 342.009 344 342.009 344H354.237C354.237 344 356.236 270.728 357.068 248.351C357.976 223.957 363 171 363 171H337.621" fill="#0A1629"/>
<path fill-rule="evenodd" clip-rule="evenodd" d="M339 339L339.627 344H354.538L355 339.538L339 339" fill="#3F8CFF"/>
<path fill-rule="evenodd" clip-rule="evenodd" d="M348 119.367C346.343 122.325 344.444 125.126 342.448 127.827C340.425 130.509 338.241 133.047 335.948 135.455C333.662 137.871 331.257 140.15 328.789 142.314C326.355 144.48 323.729 146.546 321.408 148.441L320.584 149.112L319.911 149.354C318.117 149.993 316.294 150.103 314.734 149.921C313.163 149.743 311.79 149.336 310.554 148.851C308.083 147.866 306.094 146.546 304.252 145.171C302.427 143.771 300.784 142.271 299.256 140.692C298.493 139.902 297.771 139.079 297.062 138.253C296.342 137.419 295.687 136.602 295 135.658L298.947 131.993C300.487 133.128 302.134 134.355 303.781 135.412C305.42 136.497 307.076 137.516 308.728 138.375C310.366 139.24 312.038 139.941 313.501 140.3C314.229 140.484 314.895 140.555 315.396 140.527C315.905 140.494 316.199 140.386 316.346 140.274L314.85 141.187C317.292 138.918 319.501 136.9 321.705 134.764C323.885 132.639 325.976 130.465 327.972 128.23C329.951 125.982 331.861 123.695 333.618 121.319C335.394 118.954 336.99 116.488 338.522 114L348 119.367" fill="#BE5B52"/>
<path fill-rule="evenodd" clip-rule="evenodd" d="M352.967 117.242C352.281 127.438 340.409 136 340.409 136L325 127.677C325 127.677 330.676 115.662 338.321 109.99C347.766 102.984 353.489 109.482 352.967 117.242" fill="#3769A4"/>
<path fill-rule="evenodd" clip-rule="evenodd" d="M340.409 136L326.812 128.656L325 127.677C325 127.677 330.676 115.662 338.321 109.99C341.157 107.887 343.658 107 345.754 107C350.344 107 352.998 111.247 353 116.264C353 116.587 352.989 116.913 352.967 117.242C352.281 127.439 340.409 136 340.409 136" fill="#3F8CFF"/>
</g>
<defs>
<clipPath id="clip0_966_2248">
<rect width="500" height="373" fill="white"/>
</clipPath>
</defs>
</svg>
