<svg width="36" height="37" viewBox="0 0 36 37" fill="none" xmlns="http://www.w3.org/2000/svg">
<rect x="-7" y="-6" width="50" height="50" rx="12" fill="white"/>
<mask id="mask0_996_30233" style="mask-type:luminance" maskUnits="userSpaceOnUse" x="-7" y="-6" width="50" height="50">
<rect x="-7" y="-6" width="50" height="50" rx="12" fill="white"/>
</mask>
<g mask="url(#mask0_996_30233)">
</g>
<path fill-rule="evenodd" clip-rule="evenodd" d="M10.9999 19C9.3499 19 8 17.6501 8 16.0002C8 14.3499 9.3499 13 10.9999 13C12.6499 13 14 14.3499 14 16.0002C14 17.6501 12.6499 19 10.9999 19Z" fill="#3F8CFF"/>
<path fill-rule="evenodd" clip-rule="evenodd" d="M36 12.3448C36 7.20515 31.725 3 26.5 3C21.2752 3 17 7.20515 17 12.3448V26C17 26 35.9983 23.9193 36 12.346V12.3448Z" fill="#00255B"/>
<path fill-rule="evenodd" clip-rule="evenodd" d="M7 31.2076C5.98815 31.2076 5.16052 30.4388 5.16052 29.4993C5.16052 28.5596 5.98815 27.791 7 27.791C8.01162 27.791 8.83925 28.5596 8.83925 29.4993C8.83925 30.4388 8.01162 31.2076 7 31.2076ZM0 29.4978C0 29.4982 0 29.4989 0 29.4993C0 33.0746 3.14989 36 7 36C10.8499 36 14 33.0746 14 29.4993V20C14 20 0.00183306 21.4474 0 29.4978Z" fill="#FFC10B"/>
</svg>
